<svg id="Layer_1" data-name="Layer 1" xmlns="http://www.w3.org/2000/svg" viewBox="0 0 161.63 178.38"><defs><style>.cls-1{fill:#fff;}.cls-2{fill:#b76542;}</style></defs><g id="Group_1" data-name="Group 1"><path id="Path_28" data-name="Path 28" class="cls-1" d="M123.87,38.54c.29-2.47-1.62-6.19-3.44-9.09a21.12,21.12,0,0,1-6.67-8.79l-1.46-3.54a.26.26,0,0,0-.3-.19.25.25,0,0,0-.2.29v0l.86,4.38C113.94,28.22,117.27,35.72,123.87,38.54Z" transform="translate(0 0)"/><path id="Path_29" data-name="Path 29" class="cls-1" d="M58.41,135.51A42.81,42.81,0,0,1,45,139.58a5.13,5.13,0,0,0-4.15,3.59l-8.41,22.77c-.92,3-3.74,4.75-3.22,7.63l2.6,4.06a1.41,1.41,0,0,0,1.9.59,1.42,1.42,0,0,0,.68-.82l5.35-17.54a47.6,47.6,0,0,1,10.55-17.58Z" transform="translate(0 0)"/><path id="Path_30" data-name="Path 30" class="cls-1" d="M134.86,112.82a1,1,0,0,0-1-.17l-15.66,4.71,5.73,2.77a.85.85,0,0,1,.41,1.12.78.78,0,0,1-.1.15L116,132.23c-2.49,2.32-12.14,1.26-9.6,7.61.46,1.18,1.5,2.19,2.64,1.48,4.2-2.56,8.88-4.37,11.74-8.4L135,114.22A1,1,0,0,0,134.86,112.82Z" transform="translate(0 0)"/><path id="Path_31" data-name="Path 31" class="cls-2" d="M1.27,168.67a1.45,1.45,0,0,0,1.25-.41l4.13-4.19,18-20.33c3.74-4.25,8.41-5.62,14-6.66,0,0,19.12-2.12,28.15-13.34,0,0,8.47-8.43,20-8.43l25.89-.86a97,97,0,0,1-11.62-11c-.2-.23.11-.54.36-.36,4.37,3.48,12.8,12,17.51,10.46l31.5-9.35-3.86,5c-3.74,4.94-4.51,8-9.74,11.42l-4,1.27a3.44,3.44,0,0,0-1,1L128,128.77a1.41,1.41,0,0,0,.51,1.94,1.43,1.43,0,0,0,1.36,0l3.32-1.87a53.59,53.59,0,0,0,15.16-13.09l12.53-15.88a3.75,3.75,0,0,0-2.92-6l-25.74,2.53c-3.74,0-10.19-18.71-10.08-34.88l10.08,8.81A7,7,0,0,0,136,72.75l4-.19a1.15,1.15,0,0,0,1.37-.88,1,1,0,0,0,0-.48l-4-14.55.45-2.08a3.93,3.93,0,0,0-.37-2.65l-6.05-8.54.1-.24a15,15,0,0,0-.84-12.23c0-.17-.21-.34-.32-.5l-6.3-9.36A32.37,32.37,0,0,1,119.14,8.2L117.81.35c0-.55-.69-.42-.69.13L117,6.84a42.11,42.11,0,0,0,.22,5.61,34.93,34.93,0,0,0,3.74,12.34l2.62,5a13.43,13.43,0,0,1,1.07,2.74A16.08,16.08,0,0,1,125,39a6.75,6.75,0,0,1-.22,1.27v.19l-.3-.23a10,10,0,0,0-5.37.9H106.52a1,1,0,0,0-1,.95,1,1,0,0,0,.21.63,5.63,5.63,0,0,0,.86.9A12.56,12.56,0,0,0,112.92,46a32.83,32.83,0,0,0,5.61.32H119a15.32,15.32,0,0,1-4.4,1.27,27.56,27.56,0,0,1-3.27.41C103,58.5,96.57,76.35,89.91,80.44,61.67,97.78,48.5,77.67,20.46,110.69a.5.5,0,0,0,.07.7h0l.05,0c1.14.63,4,1.7,6.06-2.16,4.53-8.56,11.53-8.19,11.53-8.19,1,.45-.8,2.2-1.24,3.85a21.4,21.4,0,0,0-.47,7.77c.77,6.65,2.23,11.42-9.44,18.37a10,10,0,0,0-3.2,3L7.94,156c-3.23,3.37-7,2.81-7.16,6.05L0,167a1.46,1.46,0,0,0,1.25,1.67Z" transform="translate(0 0)"/></g></svg>